<?xml version="1.0" encoding="UTF-8" standalone="no"?>
<!-- Created with Inkscape (http://www.inkscape.org/) -->

<svg
   width="250mm"
   height="297mm"
   viewBox="0 0 250 297"
   version="1.1"
   id="svg1"
   xml:space="preserve"
   xmlns="http://www.w3.org/2000/svg"
   xmlns:svg="http://www.w3.org/2000/svg"><defs
     id="defs1" /><path
     style="opacity:0.105903;fill:#ff00ff;stroke-width:0.393412"
     d="m 40.907816,124.8053 -1.946505,3.93663 7.542704,3.93663 1.216564,-4.17522 23.60137,5.24884 0.121658,5.9646 2.189812,0.23858 0.364966,-8.8276 -3.649684,-0.71575 1.338223,-5.84529 -6.447808,-0.71576 -1.216564,6.44176 z"
     id="B1-Z5"><title
       id="title4">B1-Z5</title></path><path
     style="opacity:0.105903;fill:#ff00ff;stroke-width:0.400187"
     d="m 105.51867,134.20214 2.84278,15.3084 5.06758,-1.21496 7.66315,57.7102 5.0676,-1.94394 20.14668,-7.2897 -0.2472,-1.45794 14.21394,-7.77569 1.60679,4.00934 4.82037,-2.06542 1.48321,2.79439 3.08999,-2.79439 -1.4832,-1.70092 3.21357,-4.00935 -1.60678,-3.03738 11.98914,-10.32709 1.60679,0.97197 8.89918,-9.47662 12.60714,-14.82241 -21.87712,-19.07474 -6.55075,-6.43924 0.98879,-2.6729 -5.19119,-3.40186 -1.48319,1.21495 -1.48319,-1.94392 -3.70798,2.67289 -16.56232,-12.14951 -6.92157,6.31774 -8.15756,6.56074 -6.17997,5.83176 -7.41597,3.15888 -11.12396,4.8598 z"
     id="B1-Z3"><title
       id="title6">B1-Z3</title></path><path
     style="opacity:0.105903;fill:#ff00ff;stroke-width:0.396359"
     d="m 207.5729,144.92543 2.26616,-4.38598 1.23105,0.72455 4.10329,-2.22778 -0.23592,-1.31152 2.61319,-1.64494 0.76242,-2.2556 1.52162,-4.1541 -0.17806,-7.85879 -1.69446,-4.2999 -3.31038,-3.48002 -7.39264,-3.63307 -1.24579,0.94203 -1.61276,0.46277 -0.50969,1.66246 -6.19943,1.37697 -1.72286,-1.08578 -9.39377,12.77918 -7.00356,-5.65367 0.88823,-2.49266 -4.78891,-4.20662 -1.62225,1.53414 -1.84238,-1.56299 -2.61107,1.40686 2.36675,-1.76605 -3.80638,-3.36511 9.3854,-11.826851 -2.44634,-3.234723 4.26277,-6.27416 -12.81077,-6.654431 -2.87222,2.952336 -1.59805,-1.203808 -10.26522,13.367186 -1.22579,-1.319758 -2.25039,2.600363 4.05806,2.890986 -0.76029,2.01752 16.71773,12.63948 4.35391,-2.58285 0.97729,1.43674 1.86445,-0.93688 4.91159,4.3267 -1.13675,2.60965 z"
     id="B1-Z2"><title
       id="title7">B1-Z2</title></path><path
     style="opacity:0.105903;fill:#ff00ff;stroke-width:0.618001"
     d="m 84.040942,187.3683 1.826569,16.98708 -2.191882,-0.36531 2.191882,8.76753 28.129149,-5.29705 0.54797,1.64391 5.11439,-2.37454 -8.0369,-57.17158 -4.93173,0.91328 -1.82657,-15.16052 -17.535055,2.92252 -7.671586,-0.73063 -0.365315,2.73985 -2.374538,1.09594 1.461254,7.85424 -3.470478,1.2786 1.278596,8.76753 3.653137,-1.64391 1.461256,15.70849 -1.826569,0.18265 0.182657,4.20111 2.557196,-0.36532 0.365313,4.20111 -6.027674,0.91329 1.461254,5.66236 z"
     id="B1-Z4"><title
       id="title1">B1-Z4</title></path><path
     style="opacity:0.105903;fill:#ff00ff;stroke-width:0.618001"
     d="m 13.881919,125.30258 9.863468,-17.71771 12.238007,7.67159 2.009224,-5.66236 11.142067,5.11439 -3.105165,10.04612 -11.50738,-1.82657 -1.461254,3.65314 6.94096,3.83579 -2.739853,9.49816 -12.603322,-4.93174 1.278598,-2.55719 z"
     id="B1-Z7"><title
       id="title2">B1-Z7</title></path><path
     style="opacity:0.105903;fill:#ff00ff;stroke-width:0.618001"
     d="m 74.911571,129.80367 2.195682,0.51663 0.129159,5.16631 10.590945,0.12916 9.557684,-1.93737 10.461789,-2.58315 9.17021,-4.64969 13.69073,-7.10368 9.42853,-7.62031 4.39137,-4.64969 3.3581,-5.16631 -3.74558,-4.003899 1.93737,-2.066525 1.29158,0.516631 8.52442,-11.62421 -9.29937,-6.58705 -6.84537,10.074314 -3.22894,3.09979 6.71621,7.87863 -1.29158,1.291579 -7.23284,-7.103684 -10.59095,10.074314 5.81211,8.91189 -7.74948,5.03716 -5.29547,-9.17021 -9.816,4.64969 -12.915785,4.00389 0.516631,4.00389 -1.549895,-0.25831 0.774946,4.908 -0.904105,0.12916 -1.033262,2.58315 -3.099789,-0.38747 -3.61642,0.51663 -1.162421,1.16242 -1.420738,-3.22894 -1.033261,0.12915 v -3.87473 l -1.420739,-0.12916 -0.516631,-4.26221 -10.849263,-0.77495 -0.516631,1.67905 -1.420735,0.25832 -0.129159,3.3581 4.778843,0.38748 0.516631,-1.29158 2.97063,1.16242 z"
     id="B1-Z6"><title
       id="title3">B1-Z6</title></path></svg>
