<?xml version="1.0" encoding="UTF-8" standalone="no"?>
<!-- Created with Inkscape (http://www.inkscape.org/) -->

<svg
   width="210mm"
   height="297mm"
   viewBox="0 0 210 297"
   version="1.1"
   id="svg1"
   inkscape:version="1.4.2 (f4327f4, 2025-05-13)"
   sodipodi:docname="B1.svg"
   xmlns:inkscape="http://www.inkscape.org/namespaces/inkscape"
   xmlns:sodipodi="http://sodipodi.sourceforge.net/DTD/sodipodi-0.dtd"
   xmlns="http://www.w3.org/2000/svg"
   xmlns:svg="http://www.w3.org/2000/svg">
  <sodipodi:namedview
     id="namedview1"
     pagecolor="#ffffff"
     bordercolor="#000000"
     borderopacity="0.25"
     inkscape:showpageshadow="2"
     inkscape:pageopacity="0.0"
     inkscape:pagecheckerboard="0"
     inkscape:deskcolor="#d1d1d1"
     inkscape:document-units="mm"
     inkscape:zoom="0.75811588"
     inkscape:cx="396.3774"
     inkscape:cy="561.25984"
     inkscape:window-width="1920"
     inkscape:window-height="1111"
     inkscape:window-x="-9"
     inkscape:window-y="-9"
     inkscape:window-maximized="1"
     inkscape:current-layer="layer1" />
  <defs
     id="defs1" />
  <g
     inkscape:label="Layer 1"
     inkscape:groupmode="layer"
     id="layer1">
    <path
       style="opacity:0.105903;fill:#ff00ff;stroke-width:0.391356"
       d="m 18.538303,121.32375 -1.92621,3.93663 7.46406,3.93663 1.20388,-4.17522 23.35529,5.24884 0.12039,5.9646 2.16698,0.23858 0.36116,-8.8276 -3.61163,-0.71575 1.32427,-5.84529 -6.38058,-0.71576 -1.20388,6.44176 z"
       id="B1-Z5"
       inkscape:label="B1-Z5">
      <title
         id="title4">B1-Z5</title>
    </path>
    <path
       style="opacity:0.105903;fill:#ff00ff;stroke-width:0.391356"
       d="m 56.735843,207.42038 34.0509,-5.90465 -8.00197,-56.85328 h -4.93737 l -2.72407,-14.17114 -23.49513,2.86797 -0.34051,2.53056 -2.21331,0.84352 1.70255,8.94132 -5.27789,0.50611 2.72407,8.4352 2.04305,-0.67481 3.23485,14.00244 h -2.04307 l 1.53231,4.72371 h 0.68102 l 0.17025,3.8802 -4.08612,0.3374 1.02153,5.22983 3.4051,-0.67482 2.55381,16.3643 -2.72407,0.50611 z"
       id="B1-Z4"
       inkscape:label="B1-Z4">
      <title
         id="title5">B1-Z4</title>
    </path>
    <path
       style="opacity:0.105903;fill:#ff00ff;stroke-width:0.391356"
       d="m 75.361483,130.38993 2.76893,15.03077 4.93591,-1.19292 7.46405,56.66361 4.93592,-1.90868 19.623247,-7.1575 -0.24078,-1.4315 13.84463,-7.63468 1.56505,3.93663 4.69513,-2.02796 1.44466,2.74371 3.00971,-2.74371 -1.44466,-1.67008 3.13008,-3.93664 -1.56504,-2.98229 11.67764,-10.13981 1.56505,0.95434 8.66795,-9.30476 12.27959,-14.5536 -21.30871,-18.72881 -6.38055,-6.32247 0.9631,-2.62442 -5.05631,-3.34017 -1.44466,1.19292 -1.44465,-1.90867 -3.61164,2.62442 -16.132,-11.92918 -6.74173,6.20317 -7.94562,6.44176 -6.019407,5.726 -7.22328,3.10159 -10.83494,4.77167 z"
       id="B1-Z3"
       inkscape:label="B1-Z3">
      <title
         id="title6">B1-Z3</title>
    </path>
    <path
       style="opacity:0.105903;fill:#ff00ff;stroke-width:0.391356"
       d="m 173.23699,142.31911 2.16698,-4.4138 1.20388,0.71575 3.97281,-2.26654 -0.24078,-1.31221 2.52815,-1.67009 0.72234,-2.26654 1.44464,-4.17522 -0.24076,-7.87326 -1.68544,-4.2945 -3.25047,-3.45946 -7.22329,-3.57876 -1.20389,0.95434 -1.56504,0.47716 -0.48156,1.67009 -6.0194,1.4315 -1.68544,-1.07362 -9.02909,12.88351 -6.86212,-5.60671 0.8427,-2.50513 -4.69513,-4.17521 -1.56504,1.55079 -1.80583,-1.55079 -2.52814,1.4315 2.28736,-1.78938 -3.73202,-3.34017 9.02911,-11.929182 -2.40776,-3.220879 4.09319,-6.322465 -12.52037,-6.56105 -2.76892,2.982295 -1.56504,-1.192918 -9.87183,13.479975 -1.20388,-1.31221 -2.16698,2.624419 3.9728,2.863003 -0.72232,2.027962 16.37277,12.52564 4.21359,-2.62442 0.96311,1.4315 1.80582,-0.95433 4.81551,4.2945 -1.08348,2.62442 z"
       id="B1-Z2"
       inkscape:label="B1-Z2">
      <title
         id="title7">B1-Z2</title>
    </path>
  </g>
</svg>
