<?xml version="1.0" encoding="UTF-8" standalone="no"?>
<!-- Created with Inkscape (http://www.inkscape.org/) -->

<svg
   width="210mm"
   height="297mm"
   viewBox="0 0 210 297"
   version="1.1"
   id="svg1"
   xmlns="http://www.w3.org/2000/svg"
   xmlns:svg="http://www.w3.org/2000/svg">
  <defs
     id="defs1">
    <clipPath
       id="clip0">
      <rect
         x="276"
         y="238"
         width="471"
         height="405"
         id="rect1" />
    </clipPath>
  </defs>
  <path
     style="opacity:0.105903;fill:#ff00ff;stroke-width:0.618001"
     d="m 23.875761,144.70158 c 1.085262,0.36176 16.821558,-0.90438 16.821558,-0.90438"
     id="path5" />
  <path
     style="opacity:0.105903;fill:#ff00ff;stroke-width:0.618001"
     d="m 24.418392,144.88246 16.640681,-1.62789"
     id="path6" />
  <path
     style="opacity:0.105903;fill:#ff00ff;stroke-width:0.618001"
     d="m 29.125909,189.78504 1.151094,8.82506 30.567941,-5.11597 1.151094,1.79058 5.371775,-1.91848 -7.546063,-54.22932 -7.034463,1.53479 -7.418163,1.15109 -11.255139,1.53479 -11.510942,0.8953 2.813786,14.58052 -1.534792,1.5348 1.023194,4.34857 2.04639,0.1279 0.511596,3.45329 -5.62757,0.12789 0.895296,4.98808 4.988073,0.1279 2.685886,15.73162 z"
     id="B2-Z4">
    <title
       id="title7">B2-Z4</title>
  </path>
  <path
     style="opacity:0.105903;fill:#ff00ff;stroke-width:0.618001"
     d="m 11.947347,110.24923 0.1279,15.73162 15.987417,-0.8953 2.685886,2.17429 4.732277,1.02319 2.685886,-1.27899 2.430086,-2.17429 12.662035,-3.06958 15.475818,-6.01127 9.464553,-5.11597 11.510938,-8.05766 8.825056,-7.162365 2.046391,-3.325383 -4.988076,-2.685886 1.151093,-3.197482 1.406893,0.511596 2.43009,-1.151094 9.33666,-9.72035 -10.999353,-8.185557 -10.615646,13.685229 7.162363,8.057658 -0.895294,2.17429 -7.673962,-8.825055 -12.150436,10.359847 5.371771,8.697152 -8.185557,6.13917 -5.371772,-10.487744 -2.302187,2.302187 -21.35919,7.546057 -0.895295,-3.06958 -6.650765,0.5116 1.023194,2.17429 -4.348578,-0.2558 -0.255799,-1.0232 -5.115973,0.3837 -0.383698,2.43009 -6.906564,-0.8953 -5.499672,-0.63949 v 2.94168 z"
     id="B2-Z6">
    <title
       id="title8">B2-Z6</title>
  </path>
  <path
     style="opacity:0.105903;fill:#ff00ff;stroke-width:0.618001"
     d="m 52.454323,123.87381 15.012788,-4.7028 16.098052,-8.13947 19.534717,-16.459808 16.27893,13.384898 3.97929,-2.89403 3.43666,2.53228 1.98965,-2.71315 4.34104,4.7028 -1.44701,1.62789 32.1961,24.78015 -8.50122,9.94823 -2.3514,3.07491 -0.54263,1.80877 -2.89403,0.18087 -9.4056,9.58648 -2.89403,-1.08526 -11.75701,8.86297 1.80877,4.34105 -4.16017,3.07491 0.90439,3.07491 -2.35141,1.44701 -1.08526,-3.0749 -3.97929,2.53227 -3.61754,-3.61754 -16.821558,7.41596 0.542631,2.17052 -27.674178,8.86298 -8.682095,-56.43362 -5.607185,0.18088 z"
     id="B2-Z3">
    <title
       id="title9">B2-Z3</title>
  </path>
  <path
     style="opacity:0.105903;fill:#ff00ff;stroke-width:0.618001"
     d="m 102.20914,92.790969 17.77801,13.301531 4.54043,-2.43009 -4.41253,-3.900927 10.6796,-11.958587 -3.64514,-2.941685 5.43573,-6.203119 -15.02818,-6.458916 -2.11034,3.64513 -2.74983,-2.238237 -10.80749,13.493379 -1.72665,-0.575548 -1.470842,2.23824 4.732282,3.133535 z"
     id="B2-Z2">
    <title
       id="title10">B2-Z2</title>
  </path>
</svg>
