<?xml version="1.0" encoding="UTF-8" standalone="no"?>
<!-- Created with Inkscape (http://www.inkscape.org/) -->

<svg
   width="210mm"
   height="297mm"
   viewBox="0 0 210 297"
   version="1.1"
   id="svg1"
   xmlns="http://www.w3.org/2000/svg"
   xmlns:svg="http://www.w3.org/2000/svg">
  <defs
     id="defs1" />
  <g
     id="layer1">
    <path
       style="opacity:0.105903;fill:#ff00ff;stroke-width:0.3747"
       d="m 27.604193,139.21012 1.710166,19.13726 -4.508619,0.16936 2.332045,12.0243 h 5.441436 l 1.243757,15.58077 -1.088287,1.35485 1.399226,4.40326 30.161104,-3.21777 0.62188,1.86292 6.06331,-1.69356 -8.23989,-52.33109 z"
       id="B2-Z4">
      <title
         id="title1">B2-Z4</title>
    </path>
    <path
       style="opacity:0.105903;fill:#ff00ff;stroke-width:0.3747"
       d="m 55.871421,122.26488 15.17084,-4.0716 11.21323,-6.46666 15.61057,-10.05925 6.156279,-4.550617 16.05031,11.735787 5.05694,-2.39505 1.53908,1.91604 3.07814,-2.63456 4.39734,5.26913 -1.75893,1.43703 30.78141,22.51356 -22.42646,21.55554 -2.6384,-0.95803 -12.0927,9.10123 1.75893,4.31111 -5.27681,2.15555 2.85828,3.35309 -3.07815,0.2395 -2.85827,-2.63457 -4.17748,3.11358 -1.3192,-4.31111 -15.830439,7.18518 -1.09934,1.91605 -26.60394,7.66419 -7.03575,-51.25427 -6.15628,-0.95803 z"
       id="B2-Z3">
      <title
         id="title2">B2-Z3</title>
    </path>
    <path
       style="opacity:0.105903;fill:#ff00ff;stroke-width:0.3747"
       d="m 102.37334,90.410587 10.44369,-12.454308 2.19867,3.113577 2.63841,-4.670366 14.29137,6.706166 -5.49668,5.508636 2.85828,2.275307 -9.23443,11.496281 4.17748,4.19136 -4.50728,2.0358 -17.25958,-12.334557 0.76954,-1.197529 -4.727149,-2.993825 1.648999,-2.634566 z"
       id="B2-Z2">
      <title
         id="title3">B2-Z2</title>
    </path>
  </g>
</svg>
