<?xml version="1.0" encoding="UTF-8" standalone="no"?>
<!-- Created with Inkscape (http://www.inkscape.org/) -->

<svg
   width="210mm"
   height="297mm"
   viewBox="0 0 210 297"
   version="1.1"
   id="svg1"
   xmlns="http://www.w3.org/2000/svg"
   xmlns:svg="http://www.w3.org/2000/svg">
  <defs
     id="defs1" />
  <g
     id="layer1">
    <path
       style="opacity:0.105903;fill:#ff00ff;stroke-width:0.382854"
       d="m 11.267731,125.94597 -8.82317,12.36523 17.646342,6.93967 1.416065,-4.66851 4.574977,-5.80408 1.960696,-4.92087 -6.644603,-2.90203 -1.633916,3.28056 z"
       id="GF-Z7">
      <title
         id="title8">GF-Z7</title>
    </path>
    <path
       style="opacity:0.105903;fill:#ff00ff;stroke-width:0.382854"
       d="m 43.751667,133.60562 -2.541772,21.32352 -19.409986,-2.58736 1.463437,-6.42383 -1.771527,-0.71375 1.078325,-5.17474 4.852488,-5.26398 1.386447,-4.90708 2.849862,0.4461 -1.001302,3.30112 3.312007,0.17844 -0.154045,-1.87361 z"
       id="GF-Z5">
      <title
         id="title9">GF-Z5</title>
    </path>
    <path
       style="opacity:0.105903;fill:#ff00ff;stroke-width:0.382854"
       d="m 54.465742,192.64019 6.862464,-0.75705 0.544642,2.27116 3.594623,-0.12617 -0.108941,1.13557 3.267841,-0.5047 0.21784,-1.64028 2.069649,0.37853 0.217861,-2.6497 6.535673,-1.26175 0.217861,0.88322 4.357104,-0.88322 -5.773169,-34.446 -4.030345,0.50471 -2.287489,-12.61758 -4.139264,1.76646 -0.326781,1.51411 -8.387461,0.75705 -4.030345,-1.76646 -9.149953,-0.63088 -2.396407,11.73434 3.703542,0.63089 0.871423,4.1638 3.158933,-0.75705 1.524985,7.31819 -1.416065,0.12618 0.326781,3.02822 1.960707,0.12618 0.217861,2.5235 -3.049991,0.25236 0.217861,2.90204 3.485681,0.25236 1.633926,9.96788 -1.524984,0.75706 z"
       id="GF-Z4">
      <title
         id="title10">GF-Z4</title>
    </path>
    <path
       style="opacity:0.105903;fill:#ff00ff;stroke-width:0.382854"
       d="m 83.619982,187.76203 8.164517,-2.14128 11.861661,-3.39035 0.46214,-0.8922 11.55357,-5.35319 1.38642,2.31972 3.5431,-1.24908 1.69452,1.96284 2.15668,-1.78439 -0.9243,-1.07064 2.61881,-1.7844 -1.54047,-2.49815 12.63188,-7.6729 15.71285,-12.66921 -28.34473,-22.1265 -4.1593,1.60595 -12.32378,-8.02978 -6.47001,4.63943 -8.472599,5.17476 -6.470019,3.2119 -12.169737,4.46099 -3.851208,1.42752 2.618828,11.95545 h 4.467376 z"
       id="GF-Z3">
      <title
         id="title11">GF-Z3</title>
    </path>
    <path
       style="opacity:0.105903;fill:#ff00ff;stroke-width:0.382854"
       d="m 106.05122,120.21912 8.27853,-9.58936 3.48571,-4.03762 -0.65358,-0.75706 -0.21786,-1.76646 h -1.08926 -1.30715 l -0.87142,-1.00941 -0.87142,-4.037614 1.30713,-1.766466 h 3.26784 l 2.17856,0.757053 3.26784,-0.252352 3.26783,-10.851117 13.28923,2.271163 -1.74285,5.551737 8.49638,2.018812 1.74286,-5.047032 21.56775,4.289978 -2.39641,5.551728 1.30712,1.26176 -11.98208,24.47811 3.26784,2.52352 1.30715,0.75705 1.74285,4.54232 -0.21787,5.8041 -2.17855,2.77586 -1.74285,1.26177 -3.04999,0.50469 -0.87142,5.04703 -29.84628,-21.70224 -3.9214,1.00942 z"
       id="GF-Z2">
      <title
         id="title12">GF-Z2</title>
    </path>
    <path
       style="opacity:0.105903;fill:#ff00ff;stroke-width:0.382854"
       d="m 169.85212,101.21935 8.93209,2.52351 2.94106,-11.986683 4.57498,0.757055 1.1982,-7.318196 -3.59462,-0.63088 2.7232,-9.715536 -2.28749,-0.757056 -0.21785,-2.018812 -4.13928,-0.757056 -0.4357,-1.261758 -10.56602,-2.523516 v -1.640286 l -37.58017,-8.327603 -5.01069,21.197536 1.63393,0.378527 -1.30715,6.308792 14.05171,2.397339 -1.96071,5.42556 8.27855,1.640286 1.96069,-4.668506 21.56777,4.037627 -2.61429,5.551729 z"
       id="GF-Z1">
      <title
         id="title13">GF-Z1</title>
    </path>
    <path
       style="opacity:0.105903;fill:#ff00ff;stroke-width:0.382854"
       d="m 44.897035,134.05172 -1.155358,9.54652 8.934741,-0.17843 4.390365,1.96283 8.703685,-0.98143 -0.07699,-1.07063 3.851186,-1.60595 14.095342,-4.99632 7.625365,-2.94425 15.789869,-10.52793 -2.77286,-2.05205 8.31856,-10.34949 -8.31856,-5.35319 -7.702375,8.74353 3.851175,3.30113 -2.926884,1.15986 -3.234996,-1.96283 -4.467382,3.12269 v 0.4461 l -2.926917,1.78439 -1.617481,-1.51673 -5.391667,2.05206 1.078335,2.05205 -6.007857,2.2305 -0.770246,1.3383 -0.385112,2.58736 -1.771548,-0.26765 -1.001302,1.15985 -3.312029,-1.69517 -0.616179,-0.80298 -3.31204,0.53531 h -1.155347 l -0.693213,-2.05205 -1.155369,0.71376 -0.61619,1.24907 -1.309392,0.17845 -0.539168,2.14127 -0.693212,1.07064 z"
       id="GF-Z6">
      <title
         id="title14">GF-Z6</title>
    </path>
  </g>
</svg>
