<?xml version="1.0" encoding="UTF-8" standalone="no"?>
<!-- Created with Inkscape (http://www.inkscape.org/) -->

<svg
   width="210mm"
   height="297mm"
   viewBox="0 0 210 297"
   version="1.1"
   id="svg1"
   xmlns="http://www.w3.org/2000/svg"
   xmlns:svg="http://www.w3.org/2000/svg">
  <defs
     id="defs1" />
  <g
     id="layer1">
    <path
       style="opacity:0.105903;fill:#ff00ff;stroke-width:0.443623"
       d="m 144.02799,106.29954 2.05222,-6.617994 -2.05222,-0.827253 8.03049,-22.542554 20.96851,4.549865 -0.62457,2.274931 32.56813,6.307782 -1.6061,3.515821 1.51686,0.413613 -7.49512,25.127709 -26.76832,-5.37711 -1.96305,4.44645 -10.26118,-2.06811 2.05224,-6.618 z"
       id="L1-Z1">
      <title
         id="title36">L1-Z1</title>
    </path>
    <path
       style="opacity:0.105903;fill:#ff00ff;stroke-width:0.348243"
       d="m 143.25597,152.40343 35.16733,23.18826 3.10715,-3.05955 v -1.28826 l 3.53086,-2.09338 1.27111,-1.77131 1.69481,-3.05957 0.70617,-3.22059 -2.40098,-6.44116 -10.45134,-5.47502 -3.81332,2.09338 -3.95456,0.96618 -18.92539,-11.75514 -1.41235,-1.28824 0.84741,-0.80515 -1.69481,-1.61029 6.92048,-10.46693 4.09578,-10.30589 1.69481,-6.44117 -15.95945,-3.05956 -2.40099,8.53455 -2.11851,3.70367 -3.81333,3.86473 -1.27111,6.44117 -2.25975,3.54265 c 0,0 -11.72244,10.14487 -11.01627,10.46693 0.70617,0.32205 17.93676,11.11102 17.93676,11.11102 z"
       id="L1-Z2">
      <title
         id="title35">L1-Z2</title>
    </path>
    <path
       style="opacity:0.105903;fill:#ff00ff;stroke-width:0.348243"
       d="m 12.945383,148.43958 -9.986761,13.54995 6.8409344,2.96049 13.0826616,5.35165 3.095901,0.34159 5.7424,-18.2184 -5.79234,-2.33422 -2.197083,2.73275 z"
       id="L1-Z7">
      <title
         id="title37">L1-Z7</title>
    </path>
    <path
       style="opacity:0.105903;fill:#ff00ff;stroke-width:0.348243"
       d="m 24.407339,177.76559 23.091802,3.05957 4.237032,-25.68421 -3.177785,-0.16103 -0.847397,0.80515 -9.392082,-1.77134 -1.20049,2.0934 -1.412339,-0.64412 0.49432,-2.33493 -4.590109,-0.72465 -7.626651,25.52319"
       id="L1-Z5">
      <title
         id="title38">L1-Z5</title>
    </path>
    <path
       style="opacity:0.105903;fill:#ff00ff;stroke-width:0.348243"
       d="m 47.799202,180.77725 3.495377,0.79707 1.29828,3.52981 2.89617,0.22773 0.699072,7.1735 -1.997366,0.22772 1.298294,10.36174 2.79629,0.45546 2.79629,18.67387 9.187837,-1.13866 0.09985,1.36639 h 2.396829 l 0.199731,1.48024 9.087971,-0.45546 -0.499341,-1.70798 1.098534,-0.22774 0.399476,-1.70795 v 0 l 12.982797,-2.6189 -7.090591,-38.37253 -5.79234,0.68319 -2.396814,-13.20834 -9.487448,1.2525 -0.599193,2.04958 -3.894839,0.34159 -3.994719,-0.22773 -1.298279,-1.25251 -11.684517,-0.3416 z"
       id="L1-Z4">
      <title
         id="title39">L1-Z4</title>
    </path>
    <path
       style="opacity:0.105903;fill:#ff00ff;stroke-width:0.348243"
       d="m 96.035308,217.55568 7.689822,-2.16344 14.48081,-5.01006 13.58202,-4.44074 3.19575,3.75756 13.28241,-6.71804 -1.99735,-3.87143 19.7738,-12.52515 11.48478,-10.81719 -33.85514,-23.22847 -4.29432,1.93572 -15.37962,-8.99535 -2.09722,1.70798 -5.64252,3.41594 -9.93683,6.20566 -4.19446,2.33423 -4.772405,1.47305 -12.146153,4.18676 -5.508128,1.6103 3.530862,13.04339 5.508128,-0.48308 z"
       id="L1-Z3">
      <title
         id="title40">L1-Z3</title>
    </path>
    <path
       style="opacity:0.105903;fill:#ff00ff;stroke-width:0.348243"
       d="m 51.893786,155.61309 6.890875,-0.3416 0.29961,2.04957 7.889544,-0.45546 v -1.48025 l 0.599207,-0.22773 -0.299597,-2.50502 1.1984,-0.11388 2.197098,-2.2773 1.897472,0.91092 0.09985,1.13865 h 6.291667 l 2.396828,1.48024 2.896156,-0.91091 v -1.02478 l 1.498011,-0.6832 -0.09985,-1.13864 8.289019,-3.30209 3.794974,5.35166 6.29167,-2.84662 -4.094573,-4.66847 9.487433,-7.28737 2.99602,2.84662 6.39154,-4.44074 6.29165,-6.37644 6.89087,2.16345 -10.68583,11.61423 2.59656,2.27729 -4.29432,3.30209 -8.08927,5.01006 -7.58996,4.44074 -7.689815,2.96051 -12.283724,4.44072 -6.89086,1.59411 -5.093253,0.79706 -1.697756,1.70798 -7.390216,0.34159 -1.597876,-1.48024 -11.484786,-0.68318 z"
       id="L1-Z6">
      <title
         id="title41">L1-Z6</title>
    </path>
  </g>
</svg>
