<?xml version="1.0" encoding="UTF-8" standalone="no"?>
<!-- Created with Inkscape (http://www.inkscape.org/) -->

<svg
   width="210mm"
   height="297mm"
   viewBox="0 0 210 297"
   version="1.1"
   id="svg1"
   xmlns="http://www.w3.org/2000/svg"
   xmlns:svg="http://www.w3.org/2000/svg">
  <defs
     id="defs1" />
  <path
     style="opacity:0.105903;fill:#ff00ff;stroke-width:0.403714"
     d="m 48.572336,155.15643 -2.811602,21.43512 -21.470456,-2.6009 1.618805,-6.45745 -1.959603,-0.7175 1.19281,-5.20183 5.367598,-5.29151 1.533624,-4.93278 3.152388,0.44845 -1.107593,3.3184 3.663602,0.17938 -0.1704,-1.88343 z"
     id="LR-Z5">
    <title
       id="title9">LR-Z5</title>
  </path>
  <path
     style="opacity:0.105903;fill:#ff00ff;stroke-width:0.403714"
     d="m 59.838441,215.02083 7.590932,-0.76102 0.602461,2.28306 3.976215,-0.12684 -0.120487,1.14152 3.614742,-0.50735 0.240973,-1.64886 2.289345,0.38051 0.240986,-2.66357 7.22947,-1.26834 0.240987,0.88783 4.819637,-0.88783 -6.386022,-34.62628 -4.458189,0.50734 -2.530317,-12.68363 -4.578665,1.77572 -0.361474,1.52202 -9.277827,0.76101 -4.45819,-1.77569 -10.121275,-0.63419 -2.650793,11.79576 4.09669,0.63418 0.963935,4.18561 3.494253,-0.76102 1.686872,7.35649 -1.566385,0.12684 0.361474,3.04407 2.168846,0.12682 0.240987,2.53673 -3.373767,0.25368 0.240986,2.91724 3.855716,0.25367 1.807371,10.02005 -1.686871,0.76103 z"
     id="LR-Z4">
    <title
       id="title10">LR-Z4</title>
  </path>
  <path
     style="opacity:0.105903;fill:#ff00ff;stroke-width:0.403714"
     d="m 91.975198,211.18378 9.031222,-2.15248 13.12083,-3.4081 0.5112,-0.89687 12.78004,-5.38119 1.53359,2.33185 3.91922,-1.25562 1.87442,1.97311 2.38561,-1.79374 -1.02242,-1.07623 2.89682,-1.79375 -1.704,-2.51121 13.97282,-7.71306 17.38085,-12.73553 -31.35367,-22.2423 -4.60083,1.61437 -13.63203,-8.07181 -7.15683,4.66371 -9.372,5.20182 -7.156847,3.22873 -13.461616,4.48433 -4.260031,1.43499 2.89682,12.01802 h 4.941617 z"
     id="LR-Z3">
    <title
       id="title11">LR-Z3</title>
  </path>
  <path
     style="opacity:0.105903;fill:#ff00ff;stroke-width:0.403714"
     d="m 116.20228,143.29292 9.15734,-9.63955 3.85574,-4.05875 -0.72296,-0.76104 -0.24099,-1.77569 h -1.2049 -1.44591 l -0.96392,-1.0147 -0.96393,-4.05876 1.4459,-1.7757 h 3.61472 l 2.40984,0.76101 3.61474,-0.25366 3.61472,-10.90792 14.69995,2.28306 -1.92785,5.58078 9.39831,2.02939 1.92788,-5.07345 23.85728,4.31243 -2.6508,5.58078 1.44587,1.26837 -13.25405,24.60623 3.61474,2.53671 1.44591,0.76102 1.92787,4.5661 -0.24099,5.83445 -2.40983,2.79041 -1.92786,1.26838 -3.37374,0.50733 -0.96395,5.07344 -33.01461,-21.81582 -4.33768,1.01469 z"
     id="LR-Z2">
    <title
       id="title12">LR-Z2</title>
  </path>
  <path
     style="opacity:0.105903;fill:#ff00ff;stroke-width:0.403714"
     d="m 187.18714,124.55101 9.88028,2.53672 3.25327,-12.04943 5.06063,0.761 1.3254,-7.35648 -3.97622,-0.63418 3.01229,-9.766383 -2.53032,-0.761015 -0.24098,-2.02938 -4.57868,-0.761018 -0.48195,-1.268362 -11.68765,-2.536722 v -1.648871 l -41.56953,-8.371187 -5.54258,21.308468 1.80736,0.38051 -1.44589,6.34181 15.54338,2.40989 -2.16886,5.45395 9.15734,1.64887 2.16885,-4.69294 23.85729,4.05877 -2.8918,5.58078 z"
     id="LR-Z1">
    <title
       id="title13">LR-Z1</title>
  </path>
  <path
     style="opacity:0.105903;fill:#ff00ff;stroke-width:0.403714"
     d="m 49.25396,156.6632 -1.278017,9.59647 9.883223,-0.17936 4.856411,1.9731 9.62763,-0.98655 -0.08513,-1.07624 4.260005,-1.61437 15.591645,-5.02245 8.434813,-2.95965 17.46605,-10.58304 -3.06719,-2.06281 9.20161,-10.40364 -9.20161,-5.38121 -8.52004,8.7893 4.26001,3.31841 -3.23761,1.16593 -3.57841,-1.97311 -4.941596,3.13904 v 0.44842 l -3.23762,1.79374 -1.789191,-1.52468 -5.964016,2.06279 1.192798,2.06281 -6.645628,2.24216 -0.851999,1.3453 -0.425993,2.60091 -1.959616,-0.26905 -1.10759,1.16593 -3.663613,-1.70405 -0.6816,-0.80717 -3.663625,0.53811 h -1.277992 l -0.766805,-2.0628 -1.278017,0.71749 -0.681599,1.25562 -1.448391,0.17937 -0.596406,2.15249 -0.766793,1.07624 z"
     id="LR-Z6">
    <title
       id="title14">LR-Z6</title>
  </path>
  <path
     style="opacity:0.105903;fill:#ff00ff;stroke-width:0.403714"
     d="m 13.436649,145.71167 -9.7598039,12.42994 19.5196039,6.97599 1.56638,-4.69293 5.06064,-5.83447 2.16883,-4.94661 -7.34997,-2.91724 -1.80736,3.29775 z"
     id="GF-Z7">
    <title
       id="title8">GF-Z7</title>
  </path>
</svg>
