<?xml version="1.0" encoding="UTF-8" standalone="no"?>
<!-- Created with Inkscape (http://www.inkscape.org/) -->

<svg
   version="1.1"
   id="svg1"
   width="900"
   height="716"
   viewBox="0 0 900 716"
   xmlns="http://www.w3.org/2000/svg"
   xmlns:svg="http://www.w3.org/2000/svg">
  <defs
     id="defs1" />
  <g
     id="g1">
    <path
       style="opacity:0.105903;fill:#ff00ff;stroke-width:2.33575"
       d="m 2.180268,389.83191 35.756395,-55.81486 38.372716,19.62241 7.412911,-14.38976 26.16322,11.33739 2.61632,2.61632 -10.90134,24.419 -19.622414,27.47138 -1.308161,20.93057 -27.90743,-9.59318 z"
       id="LR-Z7">
      <title
         id="title1">LR-Z7</title>
    </path>
    <path
       style="opacity:0.105903;fill:#ff00ff;stroke-width:2.33575"
       d="m 86.334207,427.04599 2.466691,-21.58355 24.666912,-30.21698 8.01675,-24.35858 11.10011,2.77503 -6.16672,13.56681 15.10848,3.3917 1.54168,-8.94176 42.2421,8.94176 -14.18348,103.29271 -81.092486,-12.33346 2.466692,-30.52531 z"
       id="LR-Z5">
      <title
         id="title2">LR-Z5</title>
    </path>
    <path
       style="opacity:0.105903;fill:#ff00ff;stroke-width:2.33575"
       d="m 197.33533,498.27171 16.0335,-1.85002 4.31671,35.76703 -9.2501,-1.23335 3.08337,16.65017 6.7834,1.85002 0.61667,11.71678 -13.5668,1.23335 1.85002,14.80015 14.80015,-1.23335 8.01674,53.03387 h -6.16673 l 7.40008,26.51694 28.98363,-8.01675 1.85001,14.80015 11.10012,-0.61667 2.46669,5.55005 12.33346,-1.23334 0.61667,-6.16673 12.95013,-1.23335 2.46669,-14.18347 25.90026,-6.78341 1.23335,7.40008 16.0335,-4.93338 -22.20023,-172.05174 -16.65017,4.93338 -10.48344,-61.66729 -20.3502,4.31671 2.46669,11.71678 -39.46707,4.93339 -11.71678,-11.10012 -44.40045,-4.31671 -7.40008,58.58393 15.41683,6.7834 z"
       id="LR-Z4">
      <title
         id="title3">LR-Z4</title>
    </path>
    <path
       style="opacity:0.105903;fill:#ff00ff;stroke-width:2.33575"
       d="m 305.23752,409.01827 9.15712,60.61145 18.31425,-2.61632 18.75031,171.36906 88.95493,-28.77954 0.87211,-6.10475 30.52375,-10.46528 19.18636,-14.82583 13.0816,13.95372 11.3374,-8.72107 4.36053,6.97686 10.46529,-1.74422 -5.23264,-10.46529 11.33739,-7.84896 -5.23264,-16.57004 43.60536,-31.39586 2.61632,6.97686 79.36175,-76.74543 -125.58343,-103.78076 -13.95372,11.3374 -56.68697,-42.73325 -29.65164,25.2911 -38.37272,29.65165 -21.80268,11.33739 -13.95371,5.23265 -27.90743,13.0816 z"
       id="LR-Z3">
      <title
         id="title4">LR-Z3</title>
    </path>
    <path
       style="opacity:0.105903;fill:#ff00ff;stroke-width:2.33575"
       d="m 194.04385,364.10475 -6.97686,44.04141 47.09379,5.6687 8.72107,7.84896 34.88429,-6.10475 2.18027,-10.46528 49.27405,-12.2095 46.65774,-17.8782 42.73325,-32.26797 41.42509,-31.83191 -11.33739,-9.15712 33.57612,-51.45433 -37.93666,-23.54689 -33.14007,42.2972 15.69793,16.13398 -10.46529,5.6687 -12.64555,-11.3374 -31.83191,27.90743 -9.15713,-10.46528 -21.80268,12.2095 7.84896,12.2095 -32.26796,11.77345 1.74421,3.92448 -4.36053,3.05237 v 6.97686 l -9.59318,0.43605 -1.30816,4.36054 -16.13399,-6.97686 -11.33739,-1.30816 -10.02923,-0.43605 -0.43606,-7.84897 -6.97685,-0.8721 -1.74422,6.10475 -2.61632,3.92448 h -4.36053 l 1.74421,10.90134 -3.05238,0.43605 0.87211,3.05238 z"
       id="LR-Z6">
      <title
         id="title5">LR-Z6</title>
    </path>
    <path
       style="opacity:0.105903;fill:#ff00ff;stroke-width:2.33575"
       d="M 536.34592,107.26918 C 539.83435,88.518879 562.50914,2.180268 562.50914,2.180268 l 160.03166,44.041413 -0.8721,9.157125 44.47746,10.029233 v 9.157125 l 19.18636,4.79659 -0.87211,3.052375 13.95372,5.668697 -14.38977,46.221684 17.00609,4.36053 -7.41291,37.93667 -15.69793,-6.10475 -20.49452,58.86723 -42.2972,-12.2095 10.46529,-33.57613 -91.57126,-22.23873 -7.41291,26.16322 -36.6285,-7.84897 8.28502,-28.77954 -62.79172,-11.77344 8.72107,-27.90743 z"
       id="LR-Z1">
      <title
         id="title6">LR-Z1</title>
    </path>
    <path
       style="opacity:0.105903;fill:#ff00ff;stroke-width:2.33575"
       d="m 534.65541,347.80352 120.25122,98.05099 7.40007,-8.01675 17.88351,-8.63342 12.33346,-9.25009 7.40008,-37.00038 -10.48344,-24.05024 -23.43357,-17.26684 -13.56681,-6.7834 -5.55005,3.70004 -5.55006,1.85001 v 5.55006 l -20.3502,8.63342 -20.96688,-15.41682 22.81689,-31.45032 27.75029,10.48344 21.58355,-4.93338 29.6003,48.71716 -0.61668,-20.35021 16.65017,14.80015 28.98363,-96.20097 -12.95013,-4.93339 -7.40008,-14.18347 -9.25009,-15.41683 -9.25009,-6.7834 11.71678,-30.21697 -88.18422,-22.20023 -9.2501,27.75029 -34.53368,-8.63343 -10.48344,22.8169 18.50019,9.2501 -12.95013,20.3502 -5.55006,4.93338 -2.46669,10.48344 -11.10011,4.93339 -0.61668,11.71678 1.23335,5.55006 -2.46669,9.86677 12.95013,16.65016 12.95013,9.86677 -8.01675,9.86677 22.20023,17.26684 -22.20023,-18.50019 7.40008,-9.86677 -24.05025,-19.73353 0.61668,-15.41682 1.85001,-17.88352 8.63343,-5.55005 4.93338,-13.56681 16.03349,-21.58355 -16.03349,-9.25009 9.25009,-24.05024 8.01675,-27.13361 -56.11723,-11.71679 -15.41683,48.10049 -4.31671,4.31671 -3.08336,5.55006 -11.71679,-6.78341 -9.25009,-1.85001 h -7.40008 l -7.40007,5.55005 -1.85002,6.16673 v 8.63342 l 4.31671,8.01675 6.16673,6.16673 7.40007,1.23334 1.23335,8.01675 4.93338,4.93338 -10.48344,17.26685 -5.55005,-4.93339 -31.45032,51.80053 62.90064,51.80052 z"
       id="LR-Z2">
      <title
         id="title7">LR-Z2</title>
    </path>
  </g>
</svg>
