<?xml version="1.0" encoding="UTF-8" standalone="no"?>
<!-- Created with Inkscape (http://www.inkscape.org/) -->

<svg
   width="210mm"
   height="297mm"
   viewBox="0 0 210 297"
   version="1.1"
   id="svg1"
   xmlns="http://www.w3.org/2000/svg"
   xmlns:svg="http://www.w3.org/2000/svg">
  <defs
     id="defs1" />
  <g
     id="layer1">
    <path
       style="opacity:0.105903;fill:#ff00ff;stroke-width:0.392553"
       d="m 19.701872,145.42611 -8.993466,12.75352 17.986946,7.15758 1.443386,-4.8151 4.663266,-5.98636 1.998554,-5.07537 -6.772864,-2.99317 -1.665435,3.38359 z"
       id="LR-Z7">
      <title
         id="title8">LR-Z7</title>
    </path>
    <path
       style="opacity:0.105903;fill:#ff00ff;stroke-width:0.392553"
       d="m 52.606522,153.32628 -2.590836,21.99313 -19.784609,-2.66862 1.49168,-6.62554 -1.805721,-0.73618 1.099142,-5.33724 4.946143,-5.42926 1.413197,-5.06118 2.904876,0.4601 -1.020632,3.40479 3.375939,0.18405 -0.15702,-1.93245 z"
       id="LR-Z5">
      <title
         id="title9">LR-Z5</title>
    </path>
    <path
       style="opacity:0.105903;fill:#ff00ff;stroke-width:0.392553"
       d="m 63.517177,215.36931 6.994926,-0.78082 0.555141,2.34247 3.664015,-0.13013 -0.110992,1.17124 3.330924,-0.52055 0.222048,-1.69179 2.109599,0.39041 0.22206,-2.7329 6.661808,-1.30139 0.222074,0.91097 4.441215,-0.91097 -5.884602,-35.52765 -4.108138,0.52054 -2.331647,-13.01379 -4.219155,1.82192 -0.333093,1.56167 -8.54933,0.78082 -4.108138,-1.82193 -9.326558,-0.65069 -2.442664,12.10285 3.775033,0.65067 0.888246,4.29455 3.219893,-0.78082 1.554403,7.548 -1.443386,0.13014 0.333092,3.12332 1.998541,0.13014 0.222074,2.60275 -3.10886,0.26027 0.22206,2.99318 3.552972,0.26026 1.665462,10.2809 -1.554418,0.78085 z"
       id="LR-Z4">
      <title
         id="title10">LR-Z4</title>
    </path>
    <path
       style="opacity:0.105903;fill:#ff00ff;stroke-width:0.392553"
       d="m 93.027849,209.88131 8.322131,-2.2085 12.09057,-3.49683 0.47106,-0.92021 11.77657,-5.52129 1.41319,2.39255 3.61148,-1.2883 1.72722,2.02447 2.1983,-1.84042 -0.94213,-1.10427 2.66935,-1.84041 -1.5702,-2.57661 12.87569,-7.91385 16.01613,-13.06704 -28.89182,-22.82131 -4.23957,1.65638 -12.56165,-8.28194 -6.59489,4.78513 -8.63612,5.33725 -6.594891,3.31275 -12.404621,4.60109 -3.925549,1.47234 2.669373,12.33087 h 4.553605 z"
       id="LR-Z3">
      <title
         id="title11">LR-Z3</title>
    </path>
    <path
       style="opacity:0.105903;fill:#ff00ff;stroke-width:0.392553"
       d="m 115.88182,140.25066 8.43832,-9.89049 3.553,-4.16442 -0.6662,-0.78083 -0.22207,-1.82193 h -1.11029 -1.33237 l -0.88826,-1.0411 -0.88823,-4.16441 1.33236,-1.82193 h 3.33091 l 2.22061,0.78083 3.33093,-0.26028 3.33089,-11.19186 13.54571,2.34247 -1.77648,5.72608 8.66038,2.08219 1.77649,-5.2055 21.98403,4.42469 -2.44265,5.72607 1.33234,1.30138 -12.21334,25.24676 3.33092,2.60277 1.33237,0.78083 1.77647,4.68496 -0.22205,5.98635 -2.22062,2.86303 -1.77648,1.30138 -3.10885,0.52055 -0.88826,5.20553 -30.42233,-22.38374 -3.9971,1.04111 z"
       id="LR-Z2">
      <title
         id="title12">LR-Z2</title>
    </path>
    <path
       style="opacity:0.105903;fill:#ff00ff;stroke-width:0.392553"
       d="m 180.36455,121.23328 9.10449,2.60276 2.99782,-12.36311 4.66328,0.78083 1.22133,-7.548 -3.66401,-0.65069 2.77576,-10.02061 -2.33163,-0.780826 -0.22207,-2.082211 -4.21915,-0.780827 -0.44411,-1.301384 -10.76996,-2.602754 v -1.691797 l -38.30551,-8.589105 -5.1074,21.863186 1.66546,0.390407 -1.33237,6.506881 14.32292,2.47262 -1.99856,5.59593 8.43833,1.69179 1.99855,-4.8151 21.98404,4.16441 -2.66475,5.72608 z"
       id="LR-Z1">
      <title
         id="title13">LR-Z1</title>
    </path>
    <path
       style="opacity:0.105903;fill:#ff00ff;stroke-width:0.392553"
       d="m 53.577953,154.4844 -1.177667,9.8463 9.107209,-0.18404 4.475095,2.02446 8.871665,-1.01222 -0.07847,-1.10427 3.925522,-1.65639 14.367408,-5.1532 7.772515,-3.03671 16.09464,-10.85854 -2.82637,-2.11648 8.47912,-10.67449 -8.47912,-5.52128 -7.85104,9.01809 3.92549,3.40479 -2.98338,1.19629 -3.29743,-2.02447 -4.553584,3.22075 v 0.4601 l -2.983421,1.84043 -1.64869,-1.56437 -5.495731,2.1165 1.099146,2.1165 -6.123826,2.30053 -0.785088,1.38033 -0.392565,2.66862 -1.805734,-0.27607 -1.020632,1.19628 -3.375952,-1.7484 -0.628082,-0.8282 -3.375952,0.55213 h -1.177654 l -0.706605,-2.11649 -1.177652,0.73616 -0.628081,1.28831 -1.334674,0.18404 -0.549572,2.20852 -0.706591,1.10426 z"
       id="LR-Z6">
      <title
         id="title14">LR-Z6</title>
    </path>
  </g>
</svg>
