<?xml version="1.0" encoding="UTF-8" standalone="no"?>
<!-- Created with Inkscape (http://www.inkscape.org/) -->

<svg
   width="210mm"
   height="297mm"
   viewBox="0 0 210 297"
   version="1.1"
   id="svg1"
   xmlns="http://www.w3.org/2000/svg"
   xmlns:svg="http://www.w3.org/2000/svg">
  <defs
     id="defs1" />
  <path
     style="opacity:0.105903;fill:#ff00ff;stroke-width:0.434641"
     d="m 2.5877857,192.77768 14.7007893,5.97175 7.163531,2.27494 5.481647,-17.48871 -5.357071,-2.55931 -2.242493,3.05696 -10.651838,-4.05226 -9.5305993,12.58334 z"
     id="MZ-Z7">
    <title
       id="title29">MZ-Z7</title>
  </path>
  <path
     style="opacity:0.105903;fill:#ff00ff;stroke-width:0.434641"
     d="m 23.62531,207.61043 c 0.616662,0 22.64003,3.01619 22.64003,3.01619 l 4.845146,-24.23008 -4.228501,-0.50269 -0.264271,1.10593 -8.809358,-1.91025 -1.321392,2.21188 -1.497597,-0.80432 0.528561,-2.41295 -4.492755,-1.0054 z"
     id="MZ-Z5">
    <title
       id="title30">MZ-Z5</title>
  </path>
  <path
     style="opacity:0.105903;fill:#ff00ff;stroke-width:0.434641"
     d="m 87.400529,210.00225 7.22368,37.50131 -12.597368,1.60863 -0.264288,2.31242 -1.321391,-0.10054 v 1.70918 l -7.84032,0.90485 -0.264287,-1.30701 -2.642808,-0.20107 -0.0881,-1.20648 -8.633156,0.60324 -3.083279,-17.49392 -2.730886,-0.40216 -1.497594,-9.8529 2.026156,-0.50269 -0.440477,-6.93724 -2.907071,-0.30163 -0.79285,-3.21727 -4.052296,-1.30701 2.642802,-11.86369 10.306933,0.50271 2.202345,1.10592 7.311765,-0.40216 3.171363,-1.80971 6.783197,-1.0054 2.554703,12.56746 z"
     id="MZ-Z4">
    <title
       id="title31">MZ-Z4</title>
  </path>
  <path
     style="opacity:0.105903;fill:#ff00ff;stroke-width:0.434641"
     d="m 95.775115,246.42032 19.028185,-5.32859 15.94492,-5.52968 2.55472,3.51889 13.4783,-6.0324 -2.02616,-4.32319 13.21403,-7.84211 9.5141,-7.13833 8.1046,-7.23885 -33.82791,-22.31982 -3.8761,1.70918 -14.9759,-8.44535 -4.93323,3.41835 -8.01651,5.027 -4.31659,2.71456 -8.368877,3.31782 -9.954558,3.41835 -7.22366,2.0108 3.171363,12.96962 5.197519,-0.90485 z"
     id="MZ-Z3">
    <title
       id="title32">MZ-Z3</title>
  </path>
  <path
     style="opacity:0.105903;fill:#ff00ff;stroke-width:0.434641"
     d="m 51.532869,186.81951 -2.026157,12.06476 11.187889,0.30162 2.202324,1.50809 5.90227,-0.30161 2.290429,-1.70919 9.337914,-2.11132 11.62833,-3.61944 9.337902,-3.11672 c 0,0 5.46179,-3.5189 5.81417,-3.5189 0.35237,0 8.36888,-5.02698 8.36888,-5.02698 l 5.99035,-3.92105 -2.99517,-2.61403 6.60701,-6.43454 4.22848,-4.12214 0.17619,-0.50268 -6.6951,-2.5135 -3.78802,3.61942 -3.87612,3.71998 -3.08327,2.41295 -2.20233,0.60323 -1.67378,-1.91026 -10.218838,5.83132 4.052298,5.63022 -6.078437,2.5135 -3.964215,-4.92645 -8.192693,2.61403 0.264288,1.40755 -1.321411,0.60324 0.176189,0.90487 -2.818991,1.0054 -2.466619,-1.70919 -5.726073,-0.20108 -0.440464,-0.70379 -1.761868,-0.60323 -0.792849,-0.40216 -1.32141,1.70918 -1.497574,0.70379 0.352372,2.01079 -0.616666,0.90485 0.528562,1.20647 -7.928405,0.20108 -0.176189,-1.70916 z"
     id="MZ-Z6">
    <title
       id="title42">MZ-Z6</title>
  </path>
  <path
     style="opacity:0.105903;fill:#ff00ff;stroke-width:0.434641"
     d="m 142.35906,138.60803 2.02616,-6.43454 -2.02616,-0.80432 7.92842,-21.91766 20.70196,4.42375 -0.61664,2.21188 32.15412,6.13292 -1.58568,3.41835 1.49757,0.40216 -7.39984,24.43115 -26.42804,-5.22807 -1.93807,4.32321 -10.13075,-2.01079 2.02615,-6.43454 z"
     id="MZ-Z1">
    <title
       id="title33">MZ-Z1</title>
  </path>
  <path
     style="opacity:0.105903;fill:#ff00ff;stroke-width:0.434641"
     d="m 120.17423,174.18459 17.93994,11.09039 3.61291,-2.27495 33.88657,22.18081 2.36709,-2.13277 0.87209,-0.28436 0.24915,-1.70622 3.48832,-1.42185 1.12126,-1.27967 0.87209,-2.27494 h 0.74749 l 0.99666,-4.6921 -1.12126,-2.41713 -1.49498,-3.55462 -1.495,-0.9953 -4.85873,-2.98587 -3.11459,-1.13747 -2.98998,1.56402 -4.36041,0.71093 -2.11792,-0.14218 -16.56954,-9.95294 -0.12457,-0.8531 -1.37041,-0.56875 0.6229,-0.8531 -1.37041,-1.42185 3.7375,-6.54049 3.36373,-4.83428 1.99334,-6.54049 2.8654,-8.67327 -16.07121,-3.27024 -0.49832,4.12336 -0.49834,2.41713 -1.99332,4.69209 -4.60958,4.26554 -0.37375,2.41714 -0.87209,3.27025 -2.36706,3.41242 z"
     id="MZ-Z2">
    <title
       id="title34">MZ-Z2</title>
  </path>
</svg>
