<?xml version="1.0" encoding="UTF-8" standalone="no"?>
<!-- Created with Inkscape (http://www.inkscape.org/) -->

<svg
   width="210mm"
   height="297mm"
   viewBox="0 0 210 297"
   version="1.1"
   id="svg1"
   inkscape:version="1.4.2 (f4327f4, 2025-05-13)"
   sodipodi:docname="PL.svg"
   xmlns:inkscape="http://www.inkscape.org/namespaces/inkscape"
   xmlns:sodipodi="http://sodipodi.sourceforge.net/DTD/sodipodi-0.dtd"
   xmlns="http://www.w3.org/2000/svg"
   xmlns:svg="http://www.w3.org/2000/svg">
  <sodipodi:namedview
     id="namedview1"
     pagecolor="#ffffff"
     bordercolor="#000000"
     borderopacity="0.25"
     inkscape:showpageshadow="2"
     inkscape:pageopacity="0.0"
     inkscape:pagecheckerboard="0"
     inkscape:deskcolor="#d1d1d1"
     inkscape:document-units="mm"
     inkscape:zoom="0.75811588"
     inkscape:cx="396.3774"
     inkscape:cy="561.25984"
     inkscape:window-width="1920"
     inkscape:window-height="1111"
     inkscape:window-x="-9"
     inkscape:window-y="-9"
     inkscape:window-maximized="1"
     inkscape:current-layer="layer1" />
  <defs
     id="defs1" />
  <g
     inkscape:label="Layer 1"
     inkscape:groupmode="layer"
     id="layer1">
    <path
       style="opacity:0.105903;fill:#ff00ff;stroke-width:0.521389"
       d="m 2.9188574,188.94589 9.8161396,-13.1461 9.580565,4.78779 1.806183,-3.9763 7.460261,3.3271 -2.591454,5.76156 -3.847939,4.05744 -2.120283,6.73534 z"
       id="PL-Z7"
       inkscape:label="PL-Z7">
      <title
         id="title22">PL-Z7</title>
    </path>
    <path
       style="opacity:0.105903;fill:#ff00ff;stroke-width:0.521389"
       d="m 23.336452,204.6076 21.909656,2.92136 2.9841,-22.96508 -11.151152,-2.27218 -0.157049,2.02871 -3.84794,-0.40574 1.177939,-3.57056 -3.141172,-0.73031 -0.628221,3.40824 -3.141171,4.86893 -3.298221,3.97628 -1.256466,4.70664 2.277333,1.29837 z"
       id="PL-Z5"
       inkscape:label="PL-Z5">
      <title
         id="title23">PL-Z5</title>
    </path>
    <path
       style="opacity:0.105903;fill:#ff00ff;stroke-width:0.521389"
       d="m 58.897976,246.53597 c 0.555296,-0.11478 8.329283,-0.91808 8.329283,-0.91808 l 0.666343,2.98379 3.44278,-0.80335 v 1.37715 l 3.886981,-0.22953 0.111071,-1.7214 2.776411,-0.22954 0.222117,-2.18048 2.221139,-0.11475 0.444227,-1.03287 4.442302,-0.91808 0.444226,1.49191 4.553325,-1.49191 -5.997074,-36.8385 -4.886513,0.80335 -2.887482,-14.23046 -4.220161,1.60667 -0.555297,1.14762 -9.217736,1.83617 -5.441801,-1.95093 -10.550404,-0.45905 -1.665865,12.50903 4.664392,0.68857 0.333179,4.24616 4.22017,-0.5738 1.332678,7.68905 -1.776905,0.34426 0.444227,3.44284 2.443248,0.34431 -0.333181,1.95093 -3.553817,0.57382 0.777406,3.55762 h 3.664872 l 1.999047,10.90234 -1.776938,0.91809 z"
       id="PL-Z4"
       inkscape:label="PL-Z4">
      <title
         id="title24">PL-Z4</title>
    </path>
    <path
       style="opacity:0.105903;fill:#ff00ff;stroke-width:0.521389"
       d="m 90.438181,243.09313 22.100369,-5.62334 1.11057,-1.72142 13.10472,-5.50856 1.33269,2.41 3.66488,-1.4919 2.55433,2.63951 2.11006,-2.0657 -0.99949,-1.49191 2.99853,-2.18047 -1.77692,-2.29525 13.10474,-8.14805 18.87971,-14.6895 -28.31955,-20.08328 0.88844,-0.57382 -5.21968,-3.09856 -4.1091,2.18047 -14.2153,-8.26283 -7.21872,4.81998 -7.44083,4.24618 -1.99903,1.72142 -4.331214,1.37713 -11.772053,4.47572 -8.329284,2.75427 2.776437,13.88616 4.886504,-0.68857 z"
       id="PL-Z3"
       inkscape:label="PL-Z3">
      <title
         id="title25">PL-Z3</title>
    </path>
    <path
       style="opacity:0.105903;fill:#ff00ff;stroke-width:0.521389"
       d="m 48.230208,184.32041 14.842016,-0.64919 0.706769,-1.70412 0.07851,-2.3533 1.80616,-0.16231 0.942365,-1.54181 0.942341,-0.16231 0.863819,1.94758 5.025876,0.0811 4.476164,1.70412 1.963235,-0.81149 h 0.785291 l 0.70677,-3.16479 7.53878,-2.8402 -0.863818,-2.10987 2.827053,-1.54183 -0.07851,-0.64921 2.827057,-0.73031 1.64911,2.191 1.17794,-0.73034 7.617324,-4.95007 3.14117,2.10987 3.29824,-1.62298 -4.00499,-3.24594 8.79527,-9.41326 9.10939,5.11237 -4.08351,5.84271 -5.18293,6.00501 3.14116,2.10987 -3.53381,2.6779 -5.96822,3.24595 -5.6541,3.3271 -3.06266,1.86642 -13.978192,4.86891 -2.748525,1.37956 -7.38174,2.59674 -4.397635,1.86644 v 0.48689 l -8.402626,1.62297 -6.046746,-1.70413 -10.601434,-0.73033 z"
       id="PL-Z6"
       inkscape:label="PL-Z6">
      <title
         id="title26">PL-Z6</title>
    </path>
    <path
       style="opacity:0.105903;fill:#ff00ff;stroke-width:0.521389"
       d="m 115.31496,170.6785 16.1033,10.78762 5.21966,-1.72144 33.20607,23.87043 0.66635,-4.47572 4.44227,-1.7214 2.55431,-2.41001 1.33269,-2.06571 0.44423,-5.27902 -2.11009,-4.01668 -0.66635,-2.06571 -4.8865,-2.86905 14.21531,-27.42801 -2.33221,-0.57382 2.22114,-6.31189 -23.54409,-4.24618 -2.11007,5.04952 -9.43986,-2.18047 2.22114,-5.73809 -14.65954,-2.63952 -4.77544,11.3614 -1.77691,1.14762 -3.77596,-1.03285 -2.77641,-0.22953 -2.22114,1.14762 -0.22211,1.95094 0.22211,1.37715 0.77738,2.52476 1.5548,1.37714 2.22114,-0.22952 0.5553,1.72142 0.55527,1.14762 -2.99852,2.63951 -1.33269,1.26238 z"
       id="PL-Z2"
       inkscape:label="PL-Z2">
      <title
         id="title27">PL-Z2</title>
    </path>
    <path
       style="opacity:0.105903;fill:#ff00ff;stroke-width:0.521389"
       d="m 136.4158,126.72479 7.21872,-22.60804 24.76573,5.3938 16.76962,3.44285 -0.5553,2.63952 11.88311,2.06571 0.44423,1.72143 4.88651,1.03285 v 2.06571 l 2.33221,0.34428 -2.44325,10.90236 3.88699,0.80333 -1.22163,7.34475 -5.4418,-1.03286 c 0,0 -2.88748,13.1976 -3.44276,13.1976 -0.5553,0 -11.88311,-3.21333 -11.88311,-3.21333 l 2.99853,-6.42666 -24.65467,-4.13142 -1.66584,4.59047 -9.77303,-1.60667 2.66536,-5.85283 -16.21432,-2.41 1.66585,-7.68903 z"
       id="PL-Z1"
       inkscape:label="PL-Z1">
      <title
         id="title28">PL-Z1</title>
    </path>
  </g>
</svg>
