<?xml version="1.0" encoding="UTF-8" standalone="no"?>
<!-- Created with Inkscape (http://www.inkscape.org/) -->

<svg
   version="1.1"
   id="svg1"
   width="624"
   height="462"
   viewBox="0 0 624 462"
   xmlns="http://www.w3.org/2000/svg"
   xmlns:svg="http://www.w3.org/2000/svg">
  <defs
     id="defs1" />
  <g
     id="g1">
    <path
       style="opacity:0.105903;fill:#ff00ff;stroke-width:2.33575"
       d="m 47.749086,321.90842 19.895453,3.97909 -3.183272,-11.14145 -5.172818,-0.39791 -2.387454,-8.35609 22.680816,-5.17282 4.774908,21.08918 55.309361,-7.95818 -1.19373,-22.68081 21.08918,-3.58118 12.33518,54.51354 23.87454,-3.97909 -2.38745,-17.508 5.57073,-0.79582 11.93727,48.14699 h -8.754 l -9.94773,-2.38745 -98.681442,15.12054 c 0,0 0.795818,24.27246 -0.795819,24.27246 -1.591636,0 -18.701725,-1.59164 -18.701725,-1.59164 l -6.366545,-53.71772 -15.916362,3.97909 z"
       id="TN-Z4">
      <title
         id="title1">TN-Z4</title>
    </path>
    <path
       style="opacity:0.105903;fill:#ff00ff;stroke-width:2.33575"
       d="m 29.824604,195.26675 10.691839,40.51644 21.946407,-1.68818 2.250914,-6.19002 119.298416,-15.19366 1.68819,-18.57004 -43.89282,3.9391 -42.204627,6.75274 -37.140073,4.50183 -5.627284,-21.94641 z"
       id="path1">
      <title
         id="title2">TN-Z4</title>
    </path>
    <path
       style="opacity:0.105903;fill:#ff00ff;stroke-width:2.33575"
       d="m 187.38855,187.38855 25.88551,-2.81364 6.19001,6.75274 32.63824,-17.44458 43.33009,-28.13642 34.32643,-20.25822 40.51644,-23.63459 38.82826,-21.383682 29.82461,-16.319123 -3.37637,-9.003654 10.69184,-7.878197 6.19001,9.003654 11.25457,-7.315469 9.56638,14.630938 -15.19367,6.752741 3.9391,6.190012 -6.19001,1.125456 -3.37637,-5.064555 -32.63825,20.258222 -33.7637,18.007307 -54.02193,32.63825 -29.8246,19.13276 -34.32643,19.13277 -32.07552,17.44458 -12.94275,7.31547 -32.07552,5.62728 z"
       id="path2">
      <title
         id="title5">TN-Z3</title>
    </path>
    <path
       style="opacity:0.105903;fill:#ff00ff;stroke-width:2.33575"
       d="m 407.85678,210.09598 37.80136,58.49263 -34.22018,21.48709 c 0,0 26.262,37.80136 24.67036,38.19927 -1.59163,0.39791 -9.94772,5.57073 -9.94772,5.57073 l 6.36654,9.94772 12.33518,-7.16236 15.91636,29.04736 5.17282,-2.78536 4.77491,6.76445 14.72264,-8.35609 -20.69128,-37.00554 10.74355,-5.57073 -7.56027,-9.94772 -10.74355,4.7749 -5.57072,-16.31427 111.81244,-64.06335 -55.70727,-84.35672 -21.08918,12.33518 38.59718,62.07381 -57.69681,38.59718 -36.60763,-67.24663 z"
       id="TN-Z3">
      <title
         id="title3">TN-Z3</title>
    </path>
    <path
       style="opacity:0.105903;fill:#ff00ff;stroke-width:2.33575"
       d="m 204.12734,331.85615 5.96864,-0.39791 3.58118,9.94773 7.95818,-1.19373 -10.74354,-17.90591 10.34563,-6.36654 14.32473,17.508 5.57073,-3.97909 -12.33518,-19.89546 10.34563,-5.96863 14.72264,19.89545 18.70172,-11.53936 -13.131,-22.28291 10.34564,-5.17282 12.73309,23.47664 11.93727,-9.54982 -11.14145,-12.33518 20.29336,-13.131 23.47663,35.41391 -22.2829,13.92681 12.33518,17.90591 -19.49755,9.15191 -10.74354,-15.12054 -40.18882,22.2829 -11.53936,6.36655 -2.38745,3.97909 -13.131,-2.38746 -4.377,2.78537 z"
       id="path3">
      <title
         id="title4">TN-Z3</title>
    </path>
  </g>
</svg>
