<?xml version="1.0" encoding="UTF-8" standalone="no"?>
<!-- Created with Inkscape (http://www.inkscape.org/) -->

<svg
   width="210mm"
   height="297mm"
   viewBox="0 0 210 297"
   version="1.1"
   id="svg1"
   xmlns="http://www.w3.org/2000/svg"
   xmlns:svg="http://www.w3.org/2000/svg">
  <defs
     id="defs1" />
  <g
     id="layer1">
    <path
       style="opacity:0.105903;fill:#ff00ff;stroke-width:0.582662"
       d="m 14.688807,152.59463 -9.4357916,16.12279 19.4831636,8.83565 1.572638,-5.00989 5.06737,-8.56241 2.096839,-6.19405 -7.688428,-3.64358 -1.485261,4.1901 z"
       id="V2-Z7">
      <title
         id="title15">V2-Z7</title>
    </path>
    <path
       style="opacity:0.105903;fill:#ff00ff;stroke-width:0.582662"
       d="m 25.883822,186.51631 21.251917,3.73576 3.212498,-27.37418 -11.181969,-2.25434 v 2.31875 l -3.644953,-0.64408 1.050239,-4.25107 -3.088943,-0.45085 -1.235575,4.57308 -1.112021,2.31876 -4.880519,6.5698 -1.297357,6.37656 2.347595,1.41703 -1.976922,7.34273"
       id="V2-Z5">
      <title
         id="title16">V2-Z5</title>
    </path>
    <path
       style="opacity:0.105903;fill:#ff00ff;stroke-width:0.582662"
       d="m 49.268663,175.10796 9.266819,0.38645 6.177886,2.44758 8.896146,-1.28819 v -1.54584 l 5.065865,-2.31875 2.47116,15.58717 h 4.324508 c 0,0 7.042788,43.66988 6.54856,43.54104 -0.494229,-0.12881 -4.324519,1.54584 -4.324519,1.54584 l -0.988456,-1.80347 -7.042787,2.0611 -0.247119,3.0917 -2.347596,0.38645 v 1.28819 l -3.953845,0.90175 v -1.2882 h -4.077399 l -0.123564,-2.83402 -8.278363,0.90171 -1.112011,-6.69861 1.482685,-0.51527 -2.224032,-12.75316 -3.706735,-0.38647 -0.247109,-4.12223 h 3.088942 l 0.370665,-3.4781 -2.471151,-0.25765 0.247119,-3.73578 0.988456,-0.25764 -1.11202,-8.88856 -4.077399,0.51528 -0.741347,-5.15278 -4.200955,-0.64412 z"
       id="V2-Z4">
      <title
         id="title17">V2-Z4</title>
    </path>
    <path
       style="opacity:0.105903;fill:#ff00ff;stroke-width:0.582662"
       d="m 92.419615,231.92524 22.487495,-6.69861 13.59135,-8.50212 1.7298,3.09166 3.95385,-1.28819 2.47116,3.09169 1.97692,-2.57641 -1.4827,-2.31875 3.45962,-2.06112 -2.22404,-2.83402 18.53365,-14.42779 14.08557,-12.62434 -32.86633,-27.05214 -4.20096,1.54583 -13.59135,-10.04792 -6.91923,5.41042 -10.37885,7.47154 -15.568256,6.95628 -8.154808,4.37986 1.729804,14.94307 h 4.448082 z"
       id="V2-Z3">
      <title
         id="title18">V2-Z3</title>
    </path>
    <path
       style="opacity:0.105903;fill:#ff00ff;stroke-width:0.582662"
       d="m 50.160398,163.52533 15.027383,-1.09306 0.873683,-2.36832 0.174736,-2.18616 0.873683,-0.36435 2.446313,-2.18613 0.873692,1.82179 3.844214,0.54653 h 2.446312 l 2.621049,2.36832 2.795794,-1.45742 0.349473,0.18217 0.873683,-2.91486 1.048429,-2.18614 6.290526,-2.36833 -0.873683,-2.73268 5.59158,-3.09701 1.747366,2.18612 8.911589,-6.7406 3.14527,2.55049 3.14526,-1.82178 -4.01896,-3.82574 8.38738,-10.9307 9.08632,6.01188 -9.08632,14.02774 3.32,2.36833 -11.00842,8.56237 -5.76633,4.55448 -9.960003,4.55446 -12.231579,4.91881 -7.164219,3.09704 v 2.00396 l -9.435794,0.91089 -5.941053,-2.18612 -9.61053,-0.54656 z"
       id="V2-Z6">
      <title
         id="title19">V2-Z6</title>
    </path>
    <path
       style="opacity:0.105903;fill:#ff00ff;stroke-width:0.582662"
       d="m 170.13739,184.64843 1.60625,1.15936 0.12355,-5.53923 5.31299,-2.83406 2.10047,-3.09166 1.11202,-1.54584 0.6178,-6.31214 -3.58318,-7.60037 -4.32452,-2.96287 14.20913,-31.81844 -2.47115,-2.18994 2.47115,-6.56981 -22.98172,-4.76633 -2.84183,5.66807 -9.14326,-1.9323 2.10048,-6.95625 -14.95048,-3.09168 -4.20096,13.13961 -2.84183,1.54584 -3.70672,-1.80348 -2.3476,0.6441 -2.10049,2.96285 1.4827,5.41043 3.2125,0.64409 0.37067,1.28819 0.61779,1.1594 -3.08894,4.6375 -1.85337,0.38645 -8.15481,11.72259 16.43317,13.13962 5.31299,-1.80348 z"
       id="V2-Z2">
      <title
         id="title20">V2-Z2</title>
    </path>
    <path
       style="opacity:0.105903;fill:#ff00ff;stroke-width:0.582662"
       d="m 196.82584,127.5813 c 0.24711,-0.64409 3.83029,-15.716 3.83029,-15.716 l 5.06586,1.03056 1.35914,-9.40384 -4.07741,-0.38646 2.71827,-12.753144 -2.5947,-0.644098 -0.24712,-2.318754 -4.57164,-1.288198 -0.24711,-2.318755 -11.9851,-2.447571 0.37068,-2.962852 -41.02114,-10.047936 -6.79567,26.408031 2.22403,1.288199 -1.60625,8.373278 15.56827,3.09168 -2.3476,6.82743 9.39039,2.18994 1.7298,-6.18334 23.97019,5.66807 -1.97693,7.21389 1.60625,1.2882 z"
       id="V2-Z1">
      <title
         id="title21">V2-Z1</title>
    </path>
  </g>
</svg>
